<mxfile host="app.diagrams.net" agent="Mozilla/5.0 (X11; Linux x86_64) AppleWebKit/537.36 (KHTML, like Gecko) Chrome/134.0.0.0 Safari/537.36" version="26.2.8">
  <diagram name="Page-1" id="Q6BJtrM2q21YROULOjPX">
    <mxGraphModel dx="1130" dy="665" grid="1" gridSize="10" guides="1" tooltips="1" connect="1" arrows="1" fold="1" page="1" pageScale="1" pageWidth="827" pageHeight="1169" math="0" shadow="0">
      <root>
        <mxCell id="0" />
        <mxCell id="1" parent="0" />
        <mxCell id="U8pVbNDCFW1y78mU_9uh-1" value="Oracle DB" style="shape=cylinder3;whiteSpace=wrap;html=1;boundedLbl=1;backgroundOutline=1;size=15;fillColor=#f8cecc;strokeColor=#b85450;" vertex="1" parent="1">
          <mxGeometry x="870" y="160" width="140" height="110" as="geometry" />
        </mxCell>
        <mxCell id="U8pVbNDCFW1y78mU_9uh-8" value="OJP Proxy&amp;nbsp;&lt;div&gt;Server&lt;/div&gt;" style="rounded=0;whiteSpace=wrap;html=1;fillColor=#e1d5e7;strokeColor=#9673a6;labelPosition=center;verticalLabelPosition=top;align=center;verticalAlign=bottom;" vertex="1" parent="1">
          <mxGeometry x="504" y="170" width="138" height="380" as="geometry" />
        </mxCell>
        <mxCell id="U8pVbNDCFW1y78mU_9uh-11" value="Java APP&lt;div&gt;Node 1&lt;/div&gt;" style="rounded=0;whiteSpace=wrap;html=1;fillColor=#60a917;strokeColor=#2D7600;fontColor=#ffffff;" vertex="1" parent="1">
          <mxGeometry x="30" y="170" width="150" height="100" as="geometry" />
        </mxCell>
        <mxCell id="U8pVbNDCFW1y78mU_9uh-12" value="&lt;font style=&quot;color: rgb(5, 5, 5);&quot;&gt;OJP&amp;nbsp;&lt;span style=&quot;background-color: transparent;&quot;&gt;J&lt;/span&gt;&lt;span style=&quot;background-color: transparent;&quot;&gt;DBC&lt;/span&gt;&lt;/font&gt;&lt;div&gt;&lt;span style=&quot;background-color: transparent;&quot;&gt;&lt;font style=&quot;color: rgb(5, 5, 5);&quot;&gt;Driver&amp;nbsp;&lt;/font&gt;&lt;/span&gt;&lt;/div&gt;" style="rounded=0;whiteSpace=wrap;html=1;fillColor=#d5e8d4;strokeColor=#82b366;" vertex="1" parent="1">
          <mxGeometry x="140" y="200" width="80" height="50" as="geometry" />
        </mxCell>
        <mxCell id="U8pVbNDCFW1y78mU_9uh-13" value="10 connections" style="endArrow=open;html=1;strokeWidth=4;rounded=0;exitX=1;exitY=0.25;exitDx=0;exitDy=0;entryX=0.014;entryY=0.278;entryDx=0;entryDy=0;entryPerimeter=0;edgeStyle=orthogonalEdgeStyle;endFill=0;strokeColor=#FFCCCC;" edge="1" parent="1" source="U8pVbNDCFW1y78mU_9uh-12" target="U8pVbNDCFW1y78mU_9uh-8">
          <mxGeometry x="0.0597" y="20" width="50" height="50" relative="1" as="geometry">
            <mxPoint x="370" y="460" as="sourcePoint" />
            <mxPoint x="360" y="280" as="targetPoint" />
            <mxPoint y="1" as="offset" />
          </mxGeometry>
        </mxCell>
        <mxCell id="U8pVbNDCFW1y78mU_9uh-14" value="Java APP&lt;div&gt;Node 2&lt;/div&gt;" style="rounded=0;whiteSpace=wrap;html=1;fillColor=#60a917;strokeColor=#2D7600;fontColor=#ffffff;" vertex="1" parent="1">
          <mxGeometry x="30" y="310" width="150" height="100" as="geometry" />
        </mxCell>
        <mxCell id="U8pVbNDCFW1y78mU_9uh-15" value="OJP&amp;nbsp;&lt;span style=&quot;background-color: transparent; color: light-dark(rgb(0, 0, 0), rgb(255, 255, 255));&quot;&gt;J&lt;/span&gt;&lt;span style=&quot;background-color: transparent; color: light-dark(rgb(0, 0, 0), rgb(255, 255, 255));&quot;&gt;DBC&lt;/span&gt;&lt;div&gt;&lt;span style=&quot;background-color: transparent; color: light-dark(rgb(0, 0, 0), rgb(255, 255, 255));&quot;&gt;Driver&amp;nbsp;&lt;/span&gt;&lt;/div&gt;" style="rounded=0;whiteSpace=wrap;html=1;fillColor=#d5e8d4;strokeColor=#82b366;" vertex="1" parent="1">
          <mxGeometry x="140" y="340" width="80" height="50" as="geometry" />
        </mxCell>
        <mxCell id="U8pVbNDCFW1y78mU_9uh-16" value="Java APP&lt;div&gt;Node N&lt;/div&gt;" style="rounded=0;whiteSpace=wrap;html=1;fillColor=#60a917;strokeColor=#2D7600;fontColor=#ffffff;" vertex="1" parent="1">
          <mxGeometry x="30" y="460" width="150" height="100" as="geometry" />
        </mxCell>
        <mxCell id="U8pVbNDCFW1y78mU_9uh-17" value="OJP&amp;nbsp;&lt;span style=&quot;background-color: transparent; color: light-dark(rgb(0, 0, 0), rgb(255, 255, 255));&quot;&gt;J&lt;/span&gt;&lt;span style=&quot;background-color: transparent; color: light-dark(rgb(0, 0, 0), rgb(255, 255, 255));&quot;&gt;DBC&lt;/span&gt;&lt;div&gt;&lt;span style=&quot;background-color: transparent; color: light-dark(rgb(0, 0, 0), rgb(255, 255, 255));&quot;&gt;Driver&amp;nbsp;&lt;/span&gt;&lt;/div&gt;" style="rounded=0;whiteSpace=wrap;html=1;fillColor=#d5e8d4;strokeColor=#82b366;" vertex="1" parent="1">
          <mxGeometry x="140" y="490" width="80" height="50" as="geometry" />
        </mxCell>
        <mxCell id="U8pVbNDCFW1y78mU_9uh-20" value="MySQl DB" style="shape=cylinder3;whiteSpace=wrap;html=1;boundedLbl=1;backgroundOutline=1;size=15;fillColor=#dae8fc;strokeColor=#6c8ebf;" vertex="1" parent="1">
          <mxGeometry x="870" y="300" width="140" height="110" as="geometry" />
        </mxCell>
        <mxCell id="U8pVbNDCFW1y78mU_9uh-21" value="Postgres DB" style="shape=cylinder3;whiteSpace=wrap;html=1;boundedLbl=1;backgroundOutline=1;size=15;fillColor=#fff2cc;strokeColor=#d6b656;" vertex="1" parent="1">
          <mxGeometry x="870" y="440" width="140" height="110" as="geometry" />
        </mxCell>
        <mxCell id="U8pVbNDCFW1y78mU_9uh-22" value="10 connections" style="endArrow=open;html=1;strokeWidth=4;rounded=0;exitX=1.007;exitY=0.225;exitDx=0;exitDy=0;edgeStyle=orthogonalEdgeStyle;endFill=0;strokeColor=#FFCCCC;exitPerimeter=0;" edge="1" parent="1" source="U8pVbNDCFW1y78mU_9uh-8" target="U8pVbNDCFW1y78mU_9uh-1">
          <mxGeometry width="50" height="50" relative="1" as="geometry">
            <mxPoint x="230" y="235" as="sourcePoint" />
            <mxPoint x="412" y="281" as="targetPoint" />
          </mxGeometry>
        </mxCell>
        <mxCell id="U8pVbNDCFW1y78mU_9uh-49" value="&amp;nbsp;TCP&amp;nbsp;" style="edgeLabel;html=1;align=center;verticalAlign=middle;resizable=0;points=[];" vertex="1" connectable="0" parent="U8pVbNDCFW1y78mU_9uh-22">
          <mxGeometry x="-0.3743" y="-4" relative="1" as="geometry">
            <mxPoint x="-39" y="-5" as="offset" />
          </mxGeometry>
        </mxCell>
        <mxCell id="U8pVbNDCFW1y78mU_9uh-23" value="10 connections" style="endArrow=open;html=1;strokeWidth=4;rounded=0;exitX=1;exitY=0.25;exitDx=0;exitDy=0;entryX=0;entryY=0.5;entryDx=0;entryDy=0;edgeStyle=orthogonalEdgeStyle;endFill=0;strokeColor=#FFCCCC;" edge="1" parent="1" source="U8pVbNDCFW1y78mU_9uh-15" target="U8pVbNDCFW1y78mU_9uh-8">
          <mxGeometry x="0.1492" y="20" width="50" height="50" relative="1" as="geometry">
            <mxPoint x="230" y="235" as="sourcePoint" />
            <mxPoint x="412" y="281" as="targetPoint" />
            <mxPoint x="1" as="offset" />
          </mxGeometry>
        </mxCell>
        <mxCell id="U8pVbNDCFW1y78mU_9uh-24" value="10 connections" style="endArrow=open;html=1;strokeWidth=4;rounded=0;exitX=1;exitY=0.25;exitDx=0;exitDy=0;entryX=0;entryY=0.75;entryDx=0;entryDy=0;edgeStyle=orthogonalEdgeStyle;endFill=0;strokeColor=#FFCCCC;" edge="1" parent="1" source="U8pVbNDCFW1y78mU_9uh-17" target="U8pVbNDCFW1y78mU_9uh-8">
          <mxGeometry width="50" height="50" relative="1" as="geometry">
            <mxPoint x="240" y="245" as="sourcePoint" />
            <mxPoint x="422" y="291" as="targetPoint" />
          </mxGeometry>
        </mxCell>
        <mxCell id="U8pVbNDCFW1y78mU_9uh-28" value="10 connections" style="endArrow=open;html=1;strokeWidth=4;rounded=0;exitX=1;exitY=0.5;exitDx=0;exitDy=0;entryX=0;entryY=0.5;entryDx=0;entryDy=0;entryPerimeter=0;edgeStyle=orthogonalEdgeStyle;endFill=0;strokeColor=#6c8ebf;fillColor=#dae8fc;" edge="1" parent="1" source="U8pVbNDCFW1y78mU_9uh-8" target="U8pVbNDCFW1y78mU_9uh-20">
          <mxGeometry x="-0.0801" width="50" height="50" relative="1" as="geometry">
            <mxPoint x="230" y="235" as="sourcePoint" />
            <mxPoint x="513" y="306" as="targetPoint" />
            <mxPoint as="offset" />
          </mxGeometry>
        </mxCell>
        <mxCell id="U8pVbNDCFW1y78mU_9uh-30" value="10 connections" style="endArrow=open;html=1;strokeWidth=4;rounded=0;exitX=1;exitY=0.5;exitDx=0;exitDy=0;edgeStyle=orthogonalEdgeStyle;endFill=0;strokeColor=#6c8ebf;fillColor=#dae8fc;entryX=-0.003;entryY=0.875;entryDx=0;entryDy=0;entryPerimeter=0;" edge="1" parent="1" source="U8pVbNDCFW1y78mU_9uh-17" target="U8pVbNDCFW1y78mU_9uh-8">
          <mxGeometry x="0.0491" y="-10" width="50" height="50" relative="1" as="geometry">
            <mxPoint x="230" y="375" as="sourcePoint" />
            <mxPoint x="500" y="510" as="targetPoint" />
            <mxPoint as="offset" />
          </mxGeometry>
        </mxCell>
        <mxCell id="U8pVbNDCFW1y78mU_9uh-31" value="10 connections" style="endArrow=open;html=1;strokeWidth=4;rounded=0;exitX=1;exitY=0.75;exitDx=0;exitDy=0;edgeStyle=orthogonalEdgeStyle;endFill=0;strokeColor=#d6b656;fillColor=#fff2cc;" edge="1" parent="1" source="U8pVbNDCFW1y78mU_9uh-12">
          <mxGeometry x="-0.0976" y="-10" width="50" height="50" relative="1" as="geometry">
            <mxPoint x="224" y="236.47" as="sourcePoint" />
            <mxPoint x="504" y="309.97" as="targetPoint" />
            <Array as="points">
              <mxPoint x="220" y="236" />
              <mxPoint x="294" y="236" />
              <mxPoint x="294" y="310" />
            </Array>
            <mxPoint as="offset" />
          </mxGeometry>
        </mxCell>
        <mxCell id="U8pVbNDCFW1y78mU_9uh-36" value="&amp;nbsp;&lt;span style=&quot;background-color: light-dark(#ffffff, var(--ge-dark-color, #121212)); color: light-dark(rgb(0, 0, 0), rgb(255, 255, 255));&quot;&gt;GRPC&amp;nbsp;&lt;/span&gt;" style="edgeLabel;html=1;align=center;verticalAlign=middle;resizable=0;points=[];" vertex="1" connectable="0" parent="U8pVbNDCFW1y78mU_9uh-31">
          <mxGeometry x="0.4631" y="-2" relative="1" as="geometry">
            <mxPoint y="-1" as="offset" />
          </mxGeometry>
        </mxCell>
        <mxCell id="U8pVbNDCFW1y78mU_9uh-32" value="10 connections" style="endArrow=open;html=1;strokeWidth=4;rounded=0;exitX=1;exitY=0.75;exitDx=0;exitDy=0;edgeStyle=orthogonalEdgeStyle;endFill=0;strokeColor=#d6b656;fillColor=#fff2cc;entryX=0.003;entryY=0.597;entryDx=0;entryDy=0;entryPerimeter=0;" edge="1" parent="1" source="U8pVbNDCFW1y78mU_9uh-15" target="U8pVbNDCFW1y78mU_9uh-8">
          <mxGeometry x="-0.0976" y="-10" width="50" height="50" relative="1" as="geometry">
            <mxPoint x="230" y="248" as="sourcePoint" />
            <mxPoint x="514" y="319.97" as="targetPoint" />
            <Array as="points">
              <mxPoint x="330" y="377" />
              <mxPoint x="330" y="399" />
            </Array>
            <mxPoint as="offset" />
          </mxGeometry>
        </mxCell>
        <mxCell id="U8pVbNDCFW1y78mU_9uh-29" value="10 connections" style="endArrow=open;html=1;strokeWidth=4;rounded=0;exitX=1;exitY=0.5;exitDx=0;exitDy=0;edgeStyle=orthogonalEdgeStyle;endFill=0;strokeColor=#6c8ebf;fillColor=#dae8fc;entryX=-0.001;entryY=0.551;entryDx=0;entryDy=0;entryPerimeter=0;" edge="1" parent="1" source="U8pVbNDCFW1y78mU_9uh-15" target="U8pVbNDCFW1y78mU_9uh-8">
          <mxGeometry x="0.1201" width="50" height="50" relative="1" as="geometry">
            <mxPoint x="652" y="370" as="sourcePoint" />
            <mxPoint x="500" y="380" as="targetPoint" />
            <mxPoint as="offset" />
          </mxGeometry>
        </mxCell>
        <mxCell id="U8pVbNDCFW1y78mU_9uh-33" value="10 connections" style="endArrow=open;html=1;strokeWidth=4;rounded=0;exitX=1;exitY=0.75;exitDx=0;exitDy=0;edgeStyle=orthogonalEdgeStyle;endFill=0;strokeColor=#d6b656;fillColor=#fff2cc;entryX=-0.011;entryY=0.95;entryDx=0;entryDy=0;entryPerimeter=0;" edge="1" parent="1" source="U8pVbNDCFW1y78mU_9uh-17" target="U8pVbNDCFW1y78mU_9uh-8">
          <mxGeometry x="-0.0976" y="-10" width="50" height="50" relative="1" as="geometry">
            <mxPoint x="230" y="388" as="sourcePoint" />
            <mxPoint x="490" y="550" as="targetPoint" />
            <mxPoint as="offset" />
          </mxGeometry>
        </mxCell>
        <mxCell id="U8pVbNDCFW1y78mU_9uh-34" value="10 connections" style="endArrow=open;html=1;strokeWidth=4;rounded=0;exitX=1;exitY=0.75;exitDx=0;exitDy=0;edgeStyle=orthogonalEdgeStyle;endFill=0;strokeColor=#d6b656;fillColor=#fff2cc;entryX=0;entryY=0.5;entryDx=0;entryDy=0;entryPerimeter=0;" edge="1" parent="1" source="U8pVbNDCFW1y78mU_9uh-8" target="U8pVbNDCFW1y78mU_9uh-21">
          <mxGeometry x="-0.0976" y="-10" width="50" height="50" relative="1" as="geometry">
            <mxPoint x="230" y="538" as="sourcePoint" />
            <mxPoint x="512" y="550" as="targetPoint" />
            <mxPoint as="offset" />
          </mxGeometry>
        </mxCell>
        <mxCell id="U8pVbNDCFW1y78mU_9uh-42" value="&amp;nbsp;&lt;span style=&quot;background-color: light-dark(#ffffff, var(--ge-dark-color, #121212)); color: light-dark(rgb(0, 0, 0), rgb(255, 255, 255));&quot;&gt;GRPC&amp;nbsp;&lt;/span&gt;" style="edgeLabel;html=1;align=center;verticalAlign=middle;resizable=0;points=[];" vertex="1" connectable="0" parent="1">
          <mxGeometry x="427.8336178860518" y="275.0037380749959" as="geometry" />
        </mxCell>
        <mxCell id="U8pVbNDCFW1y78mU_9uh-43" value="&amp;nbsp;&lt;span style=&quot;background-color: light-dark(#ffffff, var(--ge-dark-color, #121212)); color: light-dark(rgb(0, 0, 0), rgb(255, 255, 255));&quot;&gt;GRPC&amp;nbsp;&lt;/span&gt;" style="edgeLabel;html=1;align=center;verticalAlign=middle;resizable=0;points=[];" vertex="1" connectable="0" parent="1">
          <mxGeometry x="414.0036178860518" y="360.0037380749959" as="geometry" />
        </mxCell>
        <mxCell id="U8pVbNDCFW1y78mU_9uh-44" value="&amp;nbsp;&lt;span style=&quot;background-color: light-dark(#ffffff, var(--ge-dark-color, #121212)); color: light-dark(rgb(0, 0, 0), rgb(255, 255, 255));&quot;&gt;GRPC&amp;nbsp;&lt;/span&gt;" style="edgeLabel;html=1;align=center;verticalAlign=middle;resizable=0;points=[];" vertex="1" connectable="0" parent="1">
          <mxGeometry x="447.8336178860518" y="380.0037380749959" as="geometry" />
        </mxCell>
        <mxCell id="U8pVbNDCFW1y78mU_9uh-45" value="&amp;nbsp;&lt;span style=&quot;background-color: light-dark(#ffffff, var(--ge-dark-color, #121212)); color: light-dark(rgb(0, 0, 0), rgb(255, 255, 255));&quot;&gt;GRPC&amp;nbsp;&lt;/span&gt;" style="edgeLabel;html=1;align=center;verticalAlign=middle;resizable=0;points=[];" vertex="1" connectable="0" parent="1">
          <mxGeometry x="427.8336178860518" y="400.0037380749959" as="geometry" />
        </mxCell>
        <mxCell id="U8pVbNDCFW1y78mU_9uh-46" value="&amp;nbsp;&lt;span style=&quot;background-color: light-dark(#ffffff, var(--ge-dark-color, #121212)); color: light-dark(rgb(0, 0, 0), rgb(255, 255, 255));&quot;&gt;GRPC&amp;nbsp;&lt;/span&gt;" style="edgeLabel;html=1;align=center;verticalAlign=middle;resizable=0;points=[];" vertex="1" connectable="0" parent="1">
          <mxGeometry x="417.8336178860518" y="455.0037380749959" as="geometry" />
        </mxCell>
        <mxCell id="U8pVbNDCFW1y78mU_9uh-47" value="&amp;nbsp;&lt;span style=&quot;background-color: light-dark(#ffffff, var(--ge-dark-color, #121212)); color: light-dark(rgb(0, 0, 0), rgb(255, 255, 255));&quot;&gt;GRPC&amp;nbsp;&lt;/span&gt;" style="edgeLabel;html=1;align=center;verticalAlign=middle;resizable=0;points=[];" vertex="1" connectable="0" parent="1">
          <mxGeometry x="477.8336178860518" y="384.9837380749959" as="geometry">
            <mxPoint x="-54" y="118" as="offset" />
          </mxGeometry>
        </mxCell>
        <mxCell id="U8pVbNDCFW1y78mU_9uh-48" value="&amp;nbsp;&lt;span style=&quot;background-color: light-dark(#ffffff, var(--ge-dark-color, #121212)); color: light-dark(rgb(0, 0, 0), rgb(255, 255, 255));&quot;&gt;GRPC&amp;nbsp;&lt;/span&gt;" style="edgeLabel;html=1;align=center;verticalAlign=middle;resizable=0;points=[];" vertex="1" connectable="0" parent="1">
          <mxGeometry x="427.8336178860518" y="530.0037380749959" as="geometry" />
        </mxCell>
        <mxCell id="U8pVbNDCFW1y78mU_9uh-50" value="&amp;nbsp;TCP&amp;nbsp;" style="edgeLabel;html=1;align=center;verticalAlign=middle;resizable=0;points=[];" vertex="1" connectable="0" parent="1">
          <mxGeometry x="679.999333333333" y="359.9999999999999" as="geometry" />
        </mxCell>
        <mxCell id="U8pVbNDCFW1y78mU_9uh-51" value="&amp;nbsp;TCP&amp;nbsp;" style="edgeLabel;html=1;align=center;verticalAlign=middle;resizable=0;points=[];" vertex="1" connectable="0" parent="1">
          <mxGeometry x="669.999333333333" y="454.9999999999999" as="geometry" />
        </mxCell>
        <mxCell id="U8pVbNDCFW1y78mU_9uh-52" value="Hikari CP" style="shape=process;whiteSpace=wrap;html=1;backgroundOutline=1;fillColor=#f8cecc;strokeColor=#b85450;" vertex="1" parent="1">
          <mxGeometry x="513" y="230" width="120" height="60" as="geometry" />
        </mxCell>
        <mxCell id="U8pVbNDCFW1y78mU_9uh-25" value="10 connections" style="endArrow=open;html=1;strokeWidth=4;rounded=0;exitX=1;exitY=0.5;exitDx=0;exitDy=0;entryX=-0.007;entryY=0.34;entryDx=0;entryDy=0;entryPerimeter=0;edgeStyle=orthogonalEdgeStyle;endFill=0;strokeColor=#6c8ebf;fillColor=#dae8fc;" edge="1" parent="1" source="U8pVbNDCFW1y78mU_9uh-12" target="U8pVbNDCFW1y78mU_9uh-8">
          <mxGeometry x="-0.0801" width="50" height="50" relative="1" as="geometry">
            <mxPoint x="230" y="223" as="sourcePoint" />
            <mxPoint x="412" y="281" as="targetPoint" />
            <Array as="points">
              <mxPoint x="320" y="225" />
              <mxPoint x="320" y="299" />
            </Array>
            <mxPoint as="offset" />
          </mxGeometry>
        </mxCell>
        <mxCell id="U8pVbNDCFW1y78mU_9uh-41" value="&amp;nbsp;&lt;span style=&quot;background-color: light-dark(#ffffff, var(--ge-dark-color, #121212)); color: light-dark(rgb(0, 0, 0), rgb(255, 255, 255));&quot;&gt;GRPC&amp;nbsp;&lt;/span&gt;" style="edgeLabel;html=1;align=center;verticalAlign=middle;resizable=0;points=[];" vertex="1" connectable="0" parent="1">
          <mxGeometry x="417.8336178860518" y="299.0037380749959" as="geometry">
            <mxPoint x="-2" y="-2" as="offset" />
          </mxGeometry>
        </mxCell>
        <mxCell id="U8pVbNDCFW1y78mU_9uh-53" value="Hikari CP" style="shape=process;whiteSpace=wrap;html=1;backgroundOutline=1;fillColor=#dae8fc;strokeColor=#6c8ebf;" vertex="1" parent="1">
          <mxGeometry x="513" y="330" width="120" height="60" as="geometry" />
        </mxCell>
        <mxCell id="U8pVbNDCFW1y78mU_9uh-54" value="Hikari CP" style="shape=process;whiteSpace=wrap;html=1;backgroundOutline=1;fillColor=#fff2cc;strokeColor=#d6b656;" vertex="1" parent="1">
          <mxGeometry x="513" y="425" width="120" height="60" as="geometry" />
        </mxCell>
      </root>
    </mxGraphModel>
  </diagram>
</mxfile>
